<svg width="160" height="160" viewBox="0 0 160 160" fill="none" xmlns="http://www.w3.org/2000/svg">
<path fill-rule="evenodd" clip-rule="evenodd" d="M80.0001 1.89014C50.6338 1.89014 26.8188 25.6989 26.8188 55.0714C26.8188 78.5676 42.0563 98.5026 63.1876 105.534C65.8451 106.026 66.8213 104.38 66.8213 102.975C66.8213 101.708 66.7713 97.5176 66.7488 93.0751C51.9526 96.2914 48.8313 86.8001 48.8313 86.8001C46.4126 80.6526 42.9263 79.0176 42.9263 79.0176C38.1013 75.7176 43.2888 75.7851 43.2888 75.7851C48.6301 76.1601 51.4426 81.2664 51.4426 81.2664C56.1851 89.3964 63.8839 87.0451 66.9176 85.6864C67.3964 82.2489 68.7738 79.9014 70.2951 78.5739C58.4826 77.2301 46.0651 72.6689 46.0651 52.2914C46.0651 46.4851 48.1426 41.7414 51.5451 38.0164C50.9926 36.6764 49.1726 31.2664 52.0601 23.9414C52.0601 23.9414 56.5251 22.5139 66.6851 29.3951C70.9288 28.2164 75.4788 27.6251 79.9976 27.6051C84.5176 27.6264 89.0701 28.2176 93.3201 29.3951C103.47 22.5151 107.93 23.9426 107.93 23.9426C110.825 31.2676 109.005 36.6764 108.453 38.0176C111.863 41.7401 113.925 46.4851 113.925 52.2926C113.925 72.7176 101.484 77.2151 89.6413 78.5301C91.5488 80.1801 93.2488 83.4176 93.2488 88.3801C93.2488 95.4951 93.1888 101.221 93.1888 102.973C93.1888 104.385 94.1463 106.045 96.8413 105.523C117.961 98.4826 133.179 78.5551 133.179 55.0664C133.181 25.7001 109.371 1.89014 80.0001 1.89014Z" fill="#BEBBC9"/>
<path d="M46.9627 78.2449C46.8439 78.5099 46.4277 78.5887 46.0502 78.4074C45.6627 78.2324 45.4477 77.8737 45.5727 77.6074C45.6852 77.3374 46.1027 77.2612 46.4889 77.4424C46.8764 77.6174 47.0952 77.9799 46.9627 78.2449ZM49.1164 80.6499C48.8627 80.8837 48.3664 80.7749 48.0289 80.4024C47.6814 80.0312 47.6164 79.5349 47.8739 79.2974C48.1339 79.0624 48.6152 79.1724 48.9614 79.5437C49.3114 79.9187 49.3802 80.4099 49.1152 80.6487L49.1164 80.6499ZM51.2127 83.7099C50.8877 83.9374 50.3539 83.7249 50.0252 83.2512C49.6977 82.7799 49.6977 82.2137 50.0314 81.9849C50.3614 81.7574 50.8864 81.9624 51.2189 82.4312C51.5464 82.9124 51.5464 83.4799 51.2127 83.7099ZM54.0852 86.6699C53.7939 86.9912 53.1727 86.9049 52.7189 86.4662C52.2539 86.0374 52.1252 85.4287 52.4164 85.1074C52.7127 84.7862 53.3364 84.8762 53.7939 85.3112C54.2564 85.7387 54.3964 86.3499 54.0852 86.6699ZM58.0502 88.3874C57.9202 88.8049 57.3227 88.9937 56.7202 88.8174C56.1177 88.6349 55.7252 88.1474 55.8452 87.7274C55.9702 87.3074 56.5727 87.1112 57.1789 87.2999C57.7789 87.4799 58.1739 87.9624 58.0502 88.3874ZM62.4002 88.7062C62.4164 89.1437 61.9052 89.5087 61.2727 89.5162C60.6377 89.5312 60.1227 89.1762 60.1152 88.7437C60.1152 88.3012 60.6152 87.9412 61.2502 87.9312C61.8827 87.9187 62.4002 88.2712 62.4002 88.7062ZM66.4502 88.0174C66.5252 88.4449 66.0877 88.8849 65.4589 89.0012C64.8414 89.1162 64.2714 88.8512 64.1914 88.4262C64.1164 87.9887 64.5627 87.5512 65.1789 87.4362C65.8077 87.3262 66.3702 87.5824 66.4502 88.0174Z" fill="#BEBBC9"/>
<path d="M31.0689 135.378H17.6939C17.5281 135.378 17.3692 135.443 17.252 135.561C17.1348 135.678 17.0689 135.837 17.0689 136.003V142.543C17.0689 142.708 17.1348 142.867 17.252 142.985C17.3692 143.102 17.5281 143.168 17.6939 143.168H22.9102V151.293C22.9102 151.293 21.7389 151.693 18.4977 151.693C14.6777 151.693 9.33891 150.298 9.33891 138.558C9.33891 126.816 14.8989 125.27 20.1189 125.27C24.6364 125.27 26.5814 126.065 27.8214 126.449C28.2089 126.566 28.5714 126.179 28.5714 125.834L30.0627 119.515C30.0649 119.421 30.0442 119.327 30.0024 119.242C29.9606 119.157 29.899 119.084 29.8227 119.028C29.3189 118.668 26.2514 116.953 18.5002 116.953C9.57016 116.953 0.410156 120.75 0.410156 139.015C0.410156 157.278 10.8977 159.999 19.7352 159.999C27.0527 159.999 31.4914 156.871 31.4914 156.871C31.6739 156.771 31.6939 156.515 31.6939 156.396V136.001C31.6939 135.836 31.6281 135.677 31.5108 135.559C31.3936 135.442 31.2347 135.378 31.0689 135.378ZM99.3826 118.513H91.8502C91.768 118.513 91.6867 118.53 91.6109 118.561C91.5351 118.593 91.4663 118.64 91.4085 118.698C91.3507 118.756 91.3049 118.826 91.2739 118.902C91.2429 118.978 91.2272 119.059 91.2277 119.141L91.2302 133.696H79.4902V119.141C79.4907 119.059 79.475 118.978 79.444 118.902C79.4131 118.826 79.3674 118.757 79.3098 118.698C79.2521 118.64 79.1834 118.594 79.1078 118.562C79.0322 118.53 78.951 118.513 78.8689 118.513H71.3377C71.2555 118.513 71.1742 118.53 71.0984 118.561C71.0226 118.593 70.9538 118.64 70.896 118.698C70.8382 118.756 70.7924 118.826 70.7614 118.902C70.7304 118.978 70.7147 119.059 70.7152 119.141V158.554C70.7152 158.9 70.9952 159.183 71.3377 159.183H78.8689C78.9511 159.182 79.0324 159.165 79.1081 159.134C79.1838 159.102 79.2525 159.055 79.3102 158.996C79.3679 158.938 79.4135 158.869 79.4444 158.792C79.4753 158.716 79.4908 158.635 79.4902 158.553V141.695H91.2302L91.2102 158.553C91.2102 158.9 91.4902 159.183 91.8352 159.183H99.3826C99.4648 159.182 99.5461 159.165 99.6218 159.134C99.6976 159.102 99.7662 159.055 99.8239 158.996C99.8816 158.938 99.9272 158.869 99.9581 158.792C99.989 158.716 100.005 158.635 100.004 158.553V119.14C100.005 119.058 99.9893 118.977 99.9584 118.9C99.9276 118.824 99.8819 118.755 99.8242 118.697C99.7664 118.638 99.6976 118.592 99.6218 118.561C99.5461 118.529 99.4648 118.513 99.3826 118.513ZM40.4252 119.409C37.7452 119.409 35.5702 121.6 35.5702 124.313C35.5702 127.021 37.7452 129.219 40.4252 129.219C43.1077 129.219 45.2814 127.021 45.2814 124.313C45.2814 121.6 43.1064 119.409 40.4252 119.409ZM44.1202 131.419H36.6127C36.2677 131.419 35.9602 131.774 35.9602 132.119V158.184C35.9602 158.95 36.4377 159.178 37.0552 159.178H43.8177C44.5614 159.178 44.7427 158.813 44.7427 158.171V132.048C44.743 131.966 44.7271 131.884 44.696 131.808C44.6649 131.732 44.6192 131.663 44.5614 131.605C44.5036 131.547 44.4348 131.5 44.3591 131.469C44.2834 131.437 44.2022 131.419 44.1202 131.419ZM128.628 131.478H121.153C121.071 131.478 120.989 131.495 120.914 131.527C120.838 131.559 120.77 131.606 120.712 131.664C120.655 131.723 120.609 131.792 120.578 131.868C120.548 131.944 120.532 132.026 120.533 132.108V151.433C120.533 151.433 118.633 152.82 115.939 152.82C113.245 152.82 112.53 151.599 112.53 148.96V132.108C112.531 132.025 112.515 131.944 112.484 131.868C112.453 131.792 112.408 131.722 112.35 131.664C112.292 131.605 112.224 131.559 112.148 131.527C112.072 131.495 111.991 131.478 111.909 131.478H104.324C104.242 131.478 104.16 131.495 104.084 131.526C104.008 131.558 103.94 131.605 103.882 131.663C103.824 131.722 103.778 131.791 103.747 131.868C103.716 131.944 103.701 132.025 103.701 132.108V150.235C103.701 158.073 108.07 159.99 114.079 159.99C119.009 159.99 122.984 157.265 122.984 157.265C122.984 157.265 123.171 158.703 123.259 158.871C123.346 159.041 123.568 159.213 123.809 159.213L128.634 159.191C128.716 159.191 128.798 159.175 128.874 159.143C128.95 159.112 129.02 159.065 129.078 159.007C129.136 158.948 129.182 158.879 129.213 158.802C129.244 158.726 129.26 158.644 129.259 158.561L129.255 132.104C129.254 131.938 129.189 131.779 129.072 131.662C128.955 131.544 128.796 131.478 128.63 131.476L128.628 131.478ZM149.055 130.593C144.81 130.593 141.923 132.486 141.923 132.486V119.14C141.923 119.058 141.907 118.977 141.877 118.901C141.846 118.825 141.8 118.755 141.742 118.697C141.685 118.639 141.616 118.592 141.54 118.56C141.465 118.529 141.383 118.512 141.301 118.511H133.75C133.668 118.511 133.586 118.528 133.51 118.559C133.434 118.591 133.365 118.637 133.307 118.696C133.249 118.754 133.203 118.824 133.172 118.9C133.14 118.976 133.125 119.058 133.125 119.14V158.553C133.125 158.635 133.14 158.717 133.172 158.793C133.203 158.869 133.249 158.939 133.307 158.997C133.365 159.055 133.434 159.102 133.51 159.133C133.586 159.165 133.668 159.181 133.75 159.181H138.99C139.228 159.181 139.405 159.06 139.536 158.846C139.665 158.634 139.854 157.029 139.854 157.029C139.854 157.029 142.941 159.954 148.789 159.954C155.651 159.954 159.589 156.474 159.589 144.326C159.589 132.179 153.301 130.591 149.054 130.591L149.055 130.593ZM146.105 152.798C143.514 152.719 141.755 151.543 141.755 151.543V139.061C141.755 139.061 143.49 137.999 145.618 137.806C148.309 137.565 150.903 138.379 150.903 144.799C150.903 151.57 149.734 152.906 146.106 152.796L146.105 152.798ZM66.4939 152.65C66.1652 152.65 65.3227 152.784 64.4564 152.784C61.6814 152.784 60.7402 151.494 60.7402 149.824V138.741H66.3902C66.4727 138.741 66.5543 138.725 66.6305 138.693C66.7067 138.662 66.7758 138.615 66.8339 138.557C66.892 138.498 66.9379 138.429 66.969 138.352C67.0001 138.276 67.0158 138.194 67.0152 138.111V132.041C67.0155 131.959 66.9996 131.878 66.9683 131.801C66.937 131.725 66.8911 131.656 66.833 131.598C66.7749 131.54 66.7059 131.493 66.6299 131.462C66.5539 131.43 66.4724 131.414 66.3902 131.414H60.7402L60.7314 123.951C60.7314 123.668 60.5864 123.526 60.2589 123.526H52.5589C52.2614 123.526 52.1002 123.659 52.1002 123.945V131.658C52.1002 131.658 48.2414 132.589 47.9814 132.664C47.8516 132.702 47.7375 132.781 47.6564 132.889C47.5753 132.997 47.5314 133.129 47.5314 133.264V138.11C47.5309 138.192 47.5466 138.274 47.5775 138.35C47.6085 138.426 47.6541 138.495 47.7118 138.553C47.7695 138.612 47.8381 138.658 47.9138 138.69C47.9894 138.722 48.0706 138.738 48.1527 138.739H52.1002V150.399C52.1002 159.061 58.1752 159.911 62.2752 159.911C64.1464 159.911 66.3877 159.311 66.7577 159.174C66.9827 159.09 67.1114 158.859 67.1114 158.608L67.1164 153.276C67.1138 153.111 67.0473 152.953 66.9307 152.836C66.8141 152.719 66.6566 152.652 66.4914 152.649L66.4939 152.65Z" fill="#BEBBC9"/>
</svg>
