<svg width="160" height="160" viewBox="0 0 160 160" fill="none" xmlns="http://www.w3.org/2000/svg">
<path d="M135.506 45.5115L135.345 45.099L119.717 4.31398C119.399 3.51449 118.836 2.83626 118.109 2.37648C117.381 1.92522 116.532 1.70796 115.677 1.75401C114.822 1.80005 114.001 2.10718 113.326 2.63398C112.658 3.17646 112.174 3.91144 111.939 4.73898L101.387 37.0215H58.6586L48.1074 4.73773C47.8784 3.90594 47.3928 3.16757 46.7199 2.62773C46.0447 2.10093 45.2242 1.7938 44.3691 1.74776C43.5139 1.70171 42.6652 1.91897 41.9374 2.37023C41.2124 2.83148 40.6499 3.50898 40.3286 4.30773L24.6711 45.0752L24.5161 45.4877C22.2666 51.3657 21.989 57.8157 23.7251 63.8652C25.4612 69.9148 29.1169 75.2359 34.1411 79.0265L34.1949 79.0677L34.3386 79.169L58.1449 96.9965L69.9224 105.91L77.0961 111.326C77.9353 111.964 78.96 112.308 80.0136 112.308C81.0672 112.308 82.0919 111.964 82.9311 111.326L90.1049 105.91L101.882 96.9965L125.832 79.0615L125.892 79.014C130.906 75.223 134.553 69.9075 136.287 63.8661C138.02 57.8247 137.746 51.3839 135.506 45.5115Z" fill="#E24329"/>
<path d="M135.506 45.5111L135.345 45.0986C127.73 46.6606 120.554 49.8862 114.331 54.5449L80.0088 80.4974C91.6963 89.3399 101.873 97.0224 101.873 97.0224L125.823 79.0874L125.883 79.0399C130.902 75.2479 134.554 69.9284 136.29 63.8816C138.026 57.8349 137.751 51.3881 135.506 45.5111Z" fill="#FC6D26"/>
<path d="M58.145 97.0211L69.9225 105.935L77.0963 111.351C77.9355 111.988 78.9601 112.333 80.0138 112.333C81.0674 112.333 82.0921 111.988 82.9313 111.351L90.105 105.935L101.883 97.0211C101.883 97.0211 91.695 89.3148 80.0075 80.4961C68.32 89.3148 58.145 97.0211 58.145 97.0211Z" fill="#FCA326"/>
<path d="M45.6799 54.5452C39.4605 49.8788 32.2864 46.6449 24.6711 45.0752L24.5161 45.4877C22.2666 51.3657 21.989 57.8156 23.7251 63.8652C25.4612 69.9147 29.1169 75.2359 34.1411 79.0264L34.1949 79.0677L34.3386 79.1689L58.1449 96.9964L80.0086 80.4714L45.6799 54.5452Z" fill="#FC6D26"/>
<path d="M114.507 129.571C117.254 129.571 120.126 130.145 122.296 131.622C124.438 133.08 125.944 135.447 125.944 139.17V158.334H120.277V154.299H119.243L119.103 154.571C117.93 156.863 115.354 158.928 110.923 158.928C108.206 158.928 105.874 158.186 104.231 156.794C102.701 155.498 101.728 153.603 101.619 151.101L101.609 150.592V150.59C101.609 147.45 102.885 145.528 104.816 144.291C106.542 143.185 108.817 142.612 111.257 142.281L112.312 142.153C114.87 141.881 116.753 141.714 117.978 141.355C118.599 141.174 119.122 140.925 119.488 140.531C119.869 140.121 120.029 139.61 120.029 139.018V138.904C120.029 137.357 119.554 136.075 118.585 135.186C117.623 134.302 116.241 133.87 114.553 133.87C111.177 133.87 109.07 135.499 108.199 137.549L102.71 136.767C104.321 132.047 108.702 129.571 114.507 129.571ZM18.6606 119.625C26.8898 119.625 33.1926 124.564 34.5913 131.67H28.3228C27.655 129.667 26.5198 128.028 24.9595 126.873C23.4107 125.727 21.4709 125.077 19.2134 125L18.7573 124.992C15.4539 124.992 12.5837 126.275 10.5483 128.724C8.52027 131.163 7.35596 134.716 7.35596 139.208C7.35602 143.726 8.49966 147.299 10.5386 149.752C12.5859 152.215 15.4961 153.499 18.9097 153.499C21.9554 153.499 24.4924 152.583 26.2866 150.896C28.0829 149.208 29.0867 146.792 29.146 143.886L29.1567 143.375H20.1177V138.829H35.0112V143.034C35.0112 147.963 33.3194 151.911 30.4819 154.627C27.6413 157.346 23.6115 158.87 18.8696 158.87C13.5906 158.87 9.19219 156.995 6.10986 153.638C3.02406 150.276 1.21734 145.385 1.21729 139.284C1.21729 133.075 3.1075 128.164 6.21143 124.811C9.3134 121.459 13.6625 119.625 18.6606 119.625ZM137.961 120.159V134.812H139.064L139.202 134.535C139.713 133.506 140.477 132.268 141.715 131.288C142.945 130.315 144.672 129.571 147.154 129.571C150.411 129.571 153.301 130.843 155.384 133.279C157.472 135.721 158.781 139.374 158.781 144.183C158.781 148.934 157.508 152.603 155.44 155.074C153.377 157.538 150.493 158.852 147.172 158.852C144.755 158.852 143.03 158.135 141.782 157.184C140.526 156.226 139.725 155.01 139.199 153.978L139.06 153.705H137.854V158.334H132.043V120.159H137.961ZM61.6548 122.915V129.969H67.4526V134.309H61.6548V150.013C61.6548 151.485 62.0234 152.503 62.7397 153.138C63.3564 153.684 64.1511 153.873 64.9517 153.911L65.2944 153.919H65.3013C65.851 153.912 66.3984 153.855 66.937 153.748L67.9019 158.221C66.9243 158.503 65.9186 158.676 64.9028 158.734L64.4019 158.754H64.397C61.8822 158.832 59.7065 158.21 58.1743 156.954C56.7499 155.787 55.833 154.032 55.7388 151.649L55.731 151.165V134.325H51.562V129.969H55.731V122.915H61.6548ZM79.9097 120.159V153.385H97.1606V158.334H73.811V120.159H79.9097ZM46.7183 129.969V158.334H40.7944V129.969H46.7183ZM119.675 144.455C119.534 144.569 119.222 144.712 118.732 144.859C118.261 145.001 117.685 145.13 117.069 145.247C116.453 145.364 115.807 145.465 115.202 145.554L113.574 145.779L113.57 145.78C112.001 146.005 110.561 146.407 109.502 147.137C108.414 147.888 107.744 148.979 107.744 150.485C107.744 151.91 108.332 153.027 109.341 153.772C110.332 154.504 111.688 154.849 113.2 154.849H113.7V154.824C117.693 154.616 120.333 151.92 120.483 148.634L120.49 148.301V143.797L119.675 144.455ZM145.239 134.251C142.853 134.251 140.973 135.246 139.708 137.015C138.457 138.763 137.833 141.226 137.833 144.146C137.834 147.059 138.468 149.552 139.72 151.332C140.986 153.131 142.864 154.169 145.239 154.169C147.696 154.169 149.593 153.07 150.857 151.244C152.107 149.438 152.722 146.946 152.722 144.146C152.722 141.346 152.117 138.885 150.869 137.108C149.606 135.311 147.707 134.251 145.239 134.251ZM43.7856 117.785C45.7377 117.785 47.2836 119.294 47.2837 121.054C47.2837 122.81 45.7402 124.303 43.7856 124.303H43.7739C41.7979 124.303 40.27 122.833 40.27 121.054C40.2701 119.275 41.8285 117.785 43.7856 117.785Z" fill="#A277FF" stroke="#A277FF"/>
</svg>
