<svg width="160" height="160" viewBox="0 0 160 160" fill="none" xmlns="http://www.w3.org/2000/svg">
<path d="M135.506 45.5115L135.345 45.099L119.717 4.31398C119.399 3.51449 118.836 2.83626 118.109 2.37648C117.381 1.92522 116.532 1.70796 115.677 1.75401C114.822 1.80005 114.001 2.10718 113.326 2.63398C112.658 3.17646 112.174 3.91144 111.939 4.73898L101.387 37.0215H58.6586L48.1074 4.73773C47.8784 3.90594 47.3928 3.16757 46.7199 2.62773C46.0447 2.10093 45.2242 1.7938 44.3691 1.74776C43.5139 1.70171 42.6652 1.91897 41.9374 2.37023C41.2124 2.83148 40.6499 3.50898 40.3286 4.30773L24.6711 45.0752L24.5161 45.4877C22.2666 51.3657 21.989 57.8157 23.7251 63.8652C25.4612 69.9148 29.1169 75.2359 34.1411 79.0265L34.1949 79.0677L34.3386 79.169L58.1449 96.9965L69.9224 105.91L77.0961 111.326C77.9353 111.964 78.96 112.308 80.0136 112.308C81.0672 112.308 82.0919 111.964 82.9311 111.326L90.1049 105.91L101.882 96.9965L125.832 79.0615L125.892 79.014C130.906 75.223 134.553 69.9075 136.287 63.8661C138.02 57.8247 137.746 51.3839 135.506 45.5115Z" fill="#BEBBC9"/>
<path d="M27.9573 132.17H35.1885C33.9823 124.481 27.3248 119.125 18.661 119.125C8.40978 119.125 0.717285 126.661 0.717285 139.284C0.717285 151.681 8.06353 159.37 18.8698 159.37C28.5685 159.37 35.511 153.131 35.511 143.034V138.329H19.6173V143.875H28.646C28.5323 149.463 24.801 152.999 18.9098 152.999C12.351 152.999 7.85604 148.085 7.85604 139.208C7.85604 130.389 12.4273 125.493 18.7573 125.493C23.481 125.494 26.7135 128.018 27.9573 132.17ZM40.2948 158.834H47.2185V129.469H40.2948V158.834ZM43.786 124.803C45.986 124.803 47.7835 123.116 47.7835 121.054C47.7835 118.991 45.9873 117.285 43.786 117.285C41.5848 117.285 39.7698 118.968 39.7698 121.054C39.7698 123.14 41.5535 124.803 43.7735 124.803H43.786ZM67.9523 129.469H62.1548V122.415H55.231V129.469H51.0623V134.825H55.231V151.161C55.1935 156.689 59.2123 159.415 64.4123 159.254C65.7975 159.225 67.1709 158.993 68.4885 158.565L67.3198 153.149C66.6581 153.32 65.9782 153.411 65.2948 153.419C63.5523 153.419 62.1548 152.806 62.1548 150.013V134.809H67.9523V129.469ZM73.311 158.834H97.661V152.885H80.4098V119.659H73.311V158.834ZM110.924 159.428C115.534 159.428 118.286 157.265 119.549 154.799H119.777V158.834H126.444V139.17C126.444 131.405 120.114 129.071 114.507 129.071C108.33 129.071 103.586 131.824 102.056 137.179L108.522 138.1C109.209 136.09 111.161 134.37 114.554 134.37C117.77 134.37 119.529 136.015 119.529 138.904V139.018C119.529 141.005 117.442 141.104 112.259 141.656C106.56 142.269 101.109 143.97 101.109 150.59C101.092 156.368 105.317 159.428 110.924 159.428ZM113.2 154.349C110.311 154.349 108.244 153.028 108.244 150.485C108.244 147.825 110.557 146.716 113.641 146.275C115.46 146.028 119.095 145.568 119.99 144.844V148.304C120.009 151.564 117.367 154.339 113.2 154.339V154.349ZM131.544 158.834H138.354V154.205H138.754C139.846 156.348 142.122 159.351 147.172 159.351C154.096 159.351 159.281 153.859 159.281 144.183C159.281 134.389 153.945 129.071 147.154 129.071C141.97 129.071 139.807 132.189 138.754 134.313H138.461V119.659H131.544V158.834ZM138.334 144.145C138.334 138.43 140.781 134.751 145.239 134.751C149.849 134.751 152.222 138.673 152.222 144.145C152.222 149.618 149.812 153.669 145.239 153.669C140.82 153.669 138.334 149.844 138.334 144.145Z" fill="#BEBBC9"/>
</svg>
