<svg width="175" height="181" viewBox="0 0 175 181" fill="none" xmlns="http://www.w3.org/2000/svg">
<path d="M118.875 0H55.125C39.592 0 27 12.592 27 28.125V91.875C27 107.408 39.592 120 55.125 120H118.875C134.408 120 147 107.408 147 91.875V28.125C147 12.592 134.408 0 118.875 0Z" fill="url(#paint0_radial_238_130)"/>
<path d="M118.875 0H55.125C39.592 0 27 12.592 27 28.125V91.875C27 107.408 39.592 120 55.125 120H118.875C134.408 120 147 107.408 147 91.875V28.125C147 12.592 134.408 0 118.875 0Z" fill="url(#paint1_radial_238_130)"/>
<path d="M87.0042 13.125C74.2739 13.125 72.6759 13.1808 67.6763 13.4081C62.6859 13.6369 59.2795 14.4267 56.2992 15.5859C53.2158 16.7831 50.6006 18.3848 47.9953 20.9911C45.3877 23.5969 43.7859 26.212 42.585 29.2941C41.4225 32.2753 40.6317 35.6831 40.4072 40.6711C40.1836 45.6712 40.125 47.2697 40.125 60.0005C40.125 72.7313 40.1813 74.3241 40.4081 79.3237C40.6378 84.3141 41.4277 87.7205 42.5859 90.7008C43.7841 93.7842 45.3858 96.3994 47.992 99.0047C50.5969 101.612 53.212 103.218 56.2931 104.415C59.2758 105.574 62.6827 106.364 67.672 106.593C72.6722 106.82 74.2688 106.876 86.9986 106.876C99.7303 106.876 101.323 106.82 106.323 106.593C111.313 106.364 114.723 105.574 117.706 104.415C120.788 103.218 123.399 101.612 126.004 99.0047C128.611 96.3994 130.213 93.7842 131.414 90.7022C132.566 87.7205 133.357 84.3131 133.592 79.3247C133.816 74.325 133.875 72.7313 133.875 60.0005C133.875 47.2697 133.816 45.6722 133.592 40.672C133.357 35.6817 132.566 32.2758 131.414 29.2955C130.213 26.212 128.611 23.5969 126.004 20.9911C123.397 18.3839 120.789 16.7822 117.703 15.5864C114.715 14.4267 111.307 13.6364 106.316 13.4081C101.316 13.1808 99.7242 13.125 86.9897 13.125H87.0042ZM82.7991 21.5723C84.0473 21.5705 85.44 21.5723 87.0042 21.5723C99.5203 21.5723 101.003 21.6173 105.946 21.8419C110.516 22.0509 112.997 22.8145 114.649 23.4563C116.837 24.3056 118.396 25.3214 120.036 26.9625C121.677 28.6031 122.692 30.1655 123.544 32.3531C124.185 34.0031 124.95 36.4838 125.158 41.0541C125.383 45.9956 125.431 47.4797 125.431 59.9897C125.431 72.4997 125.383 73.9842 125.158 78.9253C124.949 83.4956 124.185 85.9762 123.544 87.6267C122.694 89.8144 121.677 91.372 120.036 93.0117C118.395 94.6523 116.838 95.6677 114.649 96.5175C112.999 97.162 110.516 97.9238 105.946 98.1328C101.004 98.3573 99.5203 98.4061 87.0042 98.4061C74.4877 98.4061 73.0041 98.3573 68.063 98.1328C63.4927 97.9219 61.012 97.1583 59.3583 96.5166C57.1711 95.6667 55.6083 94.6514 53.9677 93.0108C52.327 91.3702 51.3117 89.8116 50.46 87.623C49.8183 85.9725 49.0538 83.4919 48.8456 78.9216C48.6211 73.98 48.5761 72.4959 48.5761 59.978C48.5761 47.46 48.6211 45.9839 48.8456 41.0423C49.0547 36.472 49.8183 33.9914 50.46 32.3391C51.3098 30.1514 52.327 28.5891 53.9681 26.9484C55.6092 25.3078 57.1711 24.292 59.3587 23.4408C61.0111 22.7962 63.4927 22.0345 68.063 21.8245C72.3872 21.6291 74.063 21.5705 82.7991 21.5606V21.5723ZM112.026 29.3555C108.921 29.3555 106.401 31.8727 106.401 34.9786C106.401 38.0841 108.921 40.6036 112.026 40.6036C115.132 40.6036 117.651 38.0841 117.651 34.9786C117.651 31.8731 115.132 29.3536 112.026 29.3536V29.3555ZM87.0042 35.9278C73.7105 35.9278 62.932 46.7063 62.932 60.0005C62.932 73.2947 73.7105 84.068 87.0042 84.068C100.298 84.068 111.073 73.2947 111.073 60.0005C111.073 46.7067 100.298 35.9278 87.0033 35.9278H87.0042ZM87.0042 44.3752C95.6334 44.3752 102.63 51.3703 102.63 60.0005C102.63 68.6297 95.6334 75.6258 87.0042 75.6258C78.375 75.6258 71.3794 68.6297 71.3794 60.0005C71.3794 51.3703 78.3745 44.3752 87.0042 44.3752Z" fill="white"/>
<path d="M9.27175 131.309C5.701 132.807 1.77614 137.036 0.536445 142.347C-1.03377 149.075 5.49934 151.921 6.03562 150.989C6.66623 149.893 4.86496 149.522 4.49411 146.031C4.01491 141.522 6.10705 136.484 8.74025 134.274C9.22902 133.863 9.20612 134.435 9.20612 135.492C9.20612 137.383 9.10188 154.357 9.10188 157.899C9.10188 162.692 8.90432 164.206 8.54919 165.702C8.18996 167.217 7.61164 168.242 8.04948 168.636C8.53894 169.077 10.6287 168.028 11.8383 166.336C13.2889 164.307 13.7968 161.87 13.8881 159.225C13.9981 156.035 13.9933 150.973 13.9981 148.087C14.0022 145.439 14.0426 137.686 13.9516 133.025C13.9294 131.881 10.7651 130.682 9.27175 131.309ZM136.059 153.741C135.944 156.233 135.393 158.181 134.71 159.555C133.387 162.215 130.642 163.041 129.477 159.217C128.842 157.133 128.812 153.652 129.268 150.744C129.733 147.781 131.031 145.543 133.18 145.745C135.3 145.945 136.292 148.681 136.059 153.741ZM100.324 169.203C100.295 173.343 99.6449 176.973 98.2504 178.028C96.272 179.523 93.6132 178.401 94.1638 175.38C94.6509 172.706 96.955 169.976 100.33 166.64C100.33 166.64 100.337 167.401 100.324 169.203ZM99.784 153.717C99.663 155.987 99.0758 158.267 98.4349 159.555C97.1122 162.215 94.3477 163.047 93.202 159.218C92.4186 156.601 92.6063 153.216 92.9935 151.082C93.4967 148.314 94.7162 145.746 96.9054 145.746C99.0341 145.746 100.084 148.086 99.784 153.717ZM79.0831 153.683C78.9532 156.087 78.4853 158.096 77.7344 159.555C76.3754 162.197 73.6868 163.035 72.5014 159.218C71.6466 156.465 71.9375 152.713 72.2929 150.685C72.8207 147.677 74.1421 145.544 76.2048 145.746C78.3236 145.953 79.3534 148.682 79.0831 153.683ZM173.95 156.491C173.432 156.491 173.195 157.026 173 157.926C172.322 161.057 171.609 161.764 170.689 161.764C169.662 161.764 168.739 160.214 168.502 157.11C168.316 154.67 168.346 150.177 168.584 145.708C168.633 144.79 168.38 143.882 165.922 142.987C164.865 142.602 163.327 142.035 162.562 143.887C160.399 149.118 159.553 153.27 159.353 154.957C159.343 155.044 159.236 155.062 159.218 154.858C159.091 153.507 158.807 151.052 158.772 145.893C158.765 144.887 158.552 144.03 157.443 143.329C156.724 142.873 154.54 142.069 153.753 143.027C153.072 143.809 152.282 145.917 151.462 148.416C150.795 150.446 150.331 151.82 150.331 151.82C150.331 151.82 150.34 146.341 150.348 144.263C150.351 143.479 149.815 143.217 149.653 143.17C148.925 142.958 147.489 142.605 146.88 142.605C146.128 142.605 145.944 143.025 145.944 143.639C145.944 143.719 145.826 150.852 145.826 155.84C145.826 156.057 145.826 156.293 145.827 156.544C145.411 158.837 144.063 161.948 142.596 161.948C141.128 161.948 140.436 160.648 140.436 154.702C140.436 151.233 140.54 149.724 140.59 147.215C140.62 145.77 140.678 144.66 140.674 144.409C140.663 143.637 139.331 143.247 138.711 143.103C138.087 142.958 137.546 142.902 137.123 142.926C136.525 142.96 136.101 143.353 136.101 143.894C136.101 144.185 136.105 144.736 136.105 144.736C135.334 143.522 134.094 142.678 133.27 142.433C131.048 141.772 128.73 142.358 126.981 144.809C125.591 146.757 124.754 148.964 124.424 152.133C124.183 154.451 124.261 156.8 124.69 158.788C124.172 161.03 123.211 161.948 122.159 161.948C120.631 161.948 119.524 159.451 119.652 155.129C119.737 152.287 120.305 150.293 120.925 147.407C121.19 146.177 120.975 145.533 120.436 144.916C119.941 144.35 118.887 144.06 117.373 144.416C116.295 144.67 114.752 144.943 113.341 145.152C113.341 145.152 113.426 144.812 113.496 144.212C113.863 141.064 110.449 141.319 109.36 142.325C108.71 142.925 108.268 143.633 108.1 144.905C107.833 146.925 109.477 147.878 109.477 147.878C108.938 150.352 107.616 153.583 106.251 155.92C105.52 157.172 104.961 158.1 104.238 159.085C104.215 155.129 104.24 151.172 104.316 147.216C104.345 145.77 104.403 144.69 104.4 144.438C104.392 143.874 104.063 143.66 103.378 143.39C102.772 143.151 102.057 142.986 101.314 142.928C100.377 142.855 99.812 143.353 99.8271 143.942C99.8298 144.053 99.8298 144.736 99.8298 144.736C99.0591 143.522 97.8194 142.678 96.9946 142.433C94.7729 141.772 92.4549 142.358 90.7062 144.809C89.3168 146.757 88.407 149.491 88.1489 152.109C87.909 154.549 87.953 156.623 88.2805 158.37C87.9274 160.119 86.9116 161.949 85.7635 161.949C84.2951 161.949 83.4598 160.648 83.4598 154.702C83.4598 151.233 83.5637 149.724 83.615 147.215C83.6447 145.77 83.7018 144.66 83.6987 144.409C83.6878 143.637 82.3551 143.247 81.7347 143.103C81.086 142.953 80.5258 142.898 80.0955 142.93C79.5281 142.972 79.1289 143.481 79.1289 143.861V144.736C78.3581 143.522 77.1184 142.678 76.2937 142.433C74.072 141.772 71.7669 142.367 70.0053 144.809C68.8569 146.402 67.9268 148.167 67.4483 152.074C67.3099 153.203 67.2487 154.261 67.2569 155.249C66.7989 158.056 64.7755 161.291 63.1208 161.291C62.1525 161.291 61.23 159.409 61.23 155.398C61.23 150.056 61.5602 142.449 61.6162 141.716C61.6162 141.716 63.707 141.68 64.1117 141.676C65.1549 141.664 66.0992 141.689 67.4886 141.617C68.1852 141.582 68.8565 139.076 68.1374 138.766C67.8113 138.626 65.5079 138.503 64.5947 138.484C63.827 138.467 61.6894 138.308 61.6894 138.308C61.6894 138.308 61.8811 133.259 61.9259 132.726C61.9635 132.281 61.3893 132.052 61.0605 131.913C60.26 131.574 59.5439 131.412 58.6952 131.236C57.5222 130.994 56.9904 131.231 56.8865 132.222C56.7299 133.728 56.6489 138.136 56.6489 138.136C55.7883 138.136 52.8481 137.968 51.9875 137.968C51.1877 137.968 50.3243 141.414 51.4303 141.457C52.7025 141.506 54.9197 141.549 56.3895 141.593C56.3895 141.593 56.3239 149.325 56.3239 151.713C56.3241 151.966 56.325 152.212 56.3266 152.448C55.5176 156.673 52.6683 158.955 52.6683 158.955C53.2802 156.16 52.0302 154.061 49.7788 152.284C48.9492 151.63 47.3117 150.391 45.4797 149.032C45.4797 149.032 46.5406 147.984 47.4819 145.876C48.1484 144.382 48.1775 142.674 46.5406 142.297C43.8363 141.673 41.6068 143.664 40.9416 145.788C40.4262 147.434 40.701 148.655 41.7107 149.923C41.7842 150.016 41.8645 150.111 41.9465 150.206C41.3364 151.385 40.4976 152.972 39.7874 154.203C37.8159 157.621 36.3267 160.324 35.2011 160.324C34.3015 160.324 34.3135 157.579 34.3135 155.01C34.3135 152.795 34.4769 149.464 34.6074 146.017C34.6505 144.876 34.0811 144.227 33.1275 143.638C32.5478 143.281 31.3108 142.578 30.5944 142.578C29.5218 142.578 26.4279 142.724 23.5049 151.197C23.1364 152.265 22.4125 154.21 22.4125 154.21L22.475 144.022C22.475 143.783 22.3479 143.552 22.057 143.394C21.5645 143.126 20.2489 142.578 19.0789 142.578C18.5218 142.578 18.2432 142.837 18.2432 143.355L18.1414 159.296C18.1414 160.507 18.1728 161.92 18.2925 162.538C18.4114 163.156 18.6045 163.66 18.8431 163.959C19.082 164.258 19.3578 164.487 19.8128 164.58C20.2363 164.668 22.555 164.966 22.6757 164.078C22.8199 163.014 22.8257 161.863 24.0432 157.571C25.9388 150.888 28.41 147.627 29.5721 146.469C29.7755 146.267 30.0072 146.255 29.9959 146.586C29.9467 148.051 29.772 151.713 29.6548 154.822C29.34 163.146 30.8511 164.689 33.0109 164.689C34.6632 164.689 36.9922 163.044 39.4886 158.88C40.8797 156.56 42.2643 154.235 43.6425 151.907C44.3989 152.609 45.2483 153.364 46.0966 154.171C48.0688 156.046 48.7161 157.829 48.2865 159.519C47.9584 160.811 46.7207 162.143 44.5185 160.849C43.8766 160.471 43.6025 160.179 42.9572 159.753C42.6106 159.525 42.0812 159.456 41.7636 159.696C40.9392 160.319 40.4676 161.111 40.1982 162.092C39.9364 163.046 40.8904 163.551 41.8795 163.992C42.7309 164.372 44.5613 164.716 45.7281 164.755C50.2758 164.908 53.919 162.555 56.4551 156.487C56.909 161.728 58.8408 164.693 62.1976 164.693C64.4419 164.693 66.6919 161.787 67.676 158.928C67.9583 160.093 68.3766 161.107 68.9167 161.964C71.5031 166.07 76.5206 165.187 79.041 161.7C79.8203 160.622 79.9389 160.235 79.9389 160.235C80.3067 163.527 82.9529 164.678 84.4678 164.678C86.1648 164.678 87.9165 163.874 89.1446 161.104C89.2881 161.405 89.4457 161.692 89.6173 161.964C92.2036 166.07 97.2216 165.187 99.742 161.7C99.8605 161.536 99.9645 161.388 100.054 161.254L100.128 163.417L97.8074 165.55C93.9178 169.121 90.9633 171.83 90.7459 174.985C90.469 179.008 93.7236 180.504 96.1893 180.7C98.8031 180.907 101.046 179.459 102.422 177.433C103.633 175.649 104.426 171.81 104.368 168.019C104.345 166.5 104.306 164.57 104.276 162.5C105.642 160.912 107.18 158.903 108.597 156.553C110.14 153.992 111.794 150.552 112.641 147.875C112.641 147.875 114.079 147.888 115.613 147.787C116.103 147.755 116.244 147.856 116.153 148.216C116.044 148.651 114.215 155.717 115.884 160.425C117.026 163.647 119.601 164.683 121.128 164.683C122.915 164.683 124.624 163.331 125.54 161.324C125.651 161.547 125.766 161.764 125.892 161.964C128.479 166.07 133.479 165.181 136.017 161.7C136.59 160.914 136.915 160.235 136.915 160.235C137.459 163.643 140.104 164.695 141.619 164.695C143.197 164.695 144.694 164.047 145.909 161.166C145.96 162.435 146.04 163.472 146.166 163.798C146.243 163.999 146.692 164.25 147.018 164.371C148.461 164.907 149.933 164.654 150.478 164.543C150.855 164.467 151.15 164.163 151.19 163.38C151.296 161.324 151.231 157.869 151.853 155.301C152.897 150.991 153.872 149.32 154.334 148.492C154.593 148.028 154.884 147.952 154.895 148.443C154.917 149.436 154.966 152.351 155.37 156.269C155.668 159.15 156.064 160.853 156.37 161.392C157.24 162.933 158.315 163.006 159.191 163.006C159.748 163.006 160.913 162.852 160.809 161.871C160.758 161.393 160.847 158.439 161.877 154.193C162.549 151.42 163.67 148.916 164.074 148C164.224 147.662 164.293 147.928 164.29 147.98C164.205 149.889 164.014 156.134 164.79 159.55C165.843 164.177 168.887 164.695 169.948 164.695C172.213 164.695 174.065 162.969 174.689 158.427C174.839 157.334 174.617 156.491 173.95 156.491Z" fill="#A277FF"/>
<defs>
<radialGradient id="paint0_radial_238_130" cx="0" cy="0" r="1" gradientUnits="userSpaceOnUse" gradientTransform="translate(58.875 129.242) rotate(-90) scale(118.929 110.613)">
<stop stop-color="#FFDD55"/>
<stop offset="0.1" stop-color="#FFDD55"/>
<stop offset="0.5" stop-color="#FF543E"/>
<stop offset="1" stop-color="#C837AB"/>
</radialGradient>
<radialGradient id="paint1_radial_238_130" cx="0" cy="0" r="1" gradientUnits="userSpaceOnUse" gradientTransform="translate(6.89953 8.64422) rotate(78.681) scale(53.1619 219.135)">
<stop stop-color="#3771C8"/>
<stop offset="0.128" stop-color="#3771C8"/>
<stop offset="1" stop-color="#6600FF" stop-opacity="0"/>
</radialGradient>
</defs>
</svg>
