<svg width="168" height="170" viewBox="0 0 168 170" fill="none" xmlns="http://www.w3.org/2000/svg">
<path d="M116.406 0H51.5938C35.8019 0 23 12.8019 23 28.5938V93.4062C23 109.198 35.8019 122 51.5938 122H116.406C132.198 122 145 109.198 145 93.4062V28.5938C145 12.8019 132.198 0 116.406 0Z" fill="#E1DEEB"/>
<path d="M116.406 0H51.5938C35.8019 0 23 12.8019 23 28.5938V93.4062C23 109.198 35.8019 122 51.5938 122H116.406C132.198 122 145 109.198 145 93.4062V28.5938C145 12.8019 132.198 0 116.406 0Z" fill="#BEBBC9"/>
<path d="M111.028 103.741H124.977C125.483 103.741 125.968 103.54 126.325 103.182C126.682 102.825 126.883 102.34 126.883 101.835L126.891 72.3632C126.891 56.9592 123.571 45.119 105.57 45.119C98.7272 44.8645 92.2741 48.3921 88.7918 54.2824C88.7748 54.311 88.7489 54.3332 88.718 54.3457C88.6872 54.3582 88.6531 54.3603 88.6209 54.3516C88.5888 54.3429 88.5604 54.3239 88.5401 54.2976C88.5197 54.2712 88.5086 54.2389 88.5083 54.2056V48.4473C88.5083 47.9418 88.3074 47.4569 87.95 47.0994C87.5925 46.7419 87.1076 46.5411 86.602 46.5411H73.3646C72.859 46.5411 72.3741 46.7419 72.0166 47.0994C71.6591 47.4569 71.4583 47.9418 71.4583 48.4473V101.832C71.4583 102.337 71.6591 102.822 72.0166 103.18C72.3741 103.537 72.859 103.738 73.3646 103.738H87.3126C87.8182 103.738 88.303 103.537 88.6605 103.18C89.018 102.822 89.2188 102.337 89.2188 101.832V75.4432C89.2188 67.9816 90.6342 60.7555 99.8848 60.7555C109.004 60.7555 109.122 69.2936 109.122 75.9264V101.834C109.122 102.34 109.323 102.825 109.68 103.182C110.038 103.54 110.523 103.741 111.028 103.741ZM41.1094 28.4165C41.1094 34.0704 45.764 38.7226 51.4184 38.7226C57.0714 38.7221 61.7231 34.0671 61.7231 28.4141C61.7221 22.7611 57.0699 18.1094 51.4165 18.1094C45.7616 18.1094 41.1094 22.7625 41.1094 28.4165ZM44.4258 103.741H58.3924C58.898 103.741 59.3828 103.54 59.7403 103.182C60.0978 102.825 60.2986 102.34 60.2986 101.834V48.4473C60.2986 47.9418 60.0978 47.4569 59.7403 47.0994C59.3828 46.7419 58.898 46.5411 58.3924 46.5411H44.4258C43.9202 46.5411 43.4353 46.7419 43.0779 47.0994C42.7204 47.4569 42.5195 47.9418 42.5195 48.4473V101.834C42.5195 102.34 42.7204 102.825 43.0779 103.182C43.4353 103.54 43.9202 103.741 44.4258 103.741Z" fill="#E1DEEB"/>
<path d="M0 133.282H6.56094V157.162H18.7V163.218H0V133.282ZM21.5953 142.938H27.8906V163.205H21.5953V142.938ZM24.743 132.857C25.4653 132.857 26.1715 133.072 26.7721 133.473C27.3727 133.874 27.8409 134.445 28.1173 135.112C28.3937 135.779 28.4661 136.514 28.3251 137.222C28.1842 137.931 27.8364 138.582 27.3256 139.092C26.8148 139.603 26.164 139.951 25.4555 140.092C24.747 140.233 24.0127 140.161 23.3453 139.884C22.6779 139.608 22.1075 139.14 21.7062 138.539C21.3048 137.938 21.0906 137.232 21.0906 136.51C21.0906 135.541 21.4754 134.612 22.1604 133.927C22.8453 133.242 23.7743 132.857 24.743 132.857ZM54.2406 133.282H60.5359V151.172L67.6813 142.911H75.3977L67.1367 152.301L75.225 163.218H67.3094L60.6156 153.191H60.5359V163.218H54.2406V133.282ZM31.3836 142.938H37.3867V145.714H37.4664C38.072 144.68 38.946 143.829 39.9958 143.251C41.0457 142.674 42.2322 142.391 43.4297 142.433C49.818 142.433 50.9867 146.63 50.9867 152.089V163.218H44.7445V153.35C44.7445 151 44.7445 148.038 41.4641 148.038C38.1836 148.038 37.6789 150.601 37.6789 153.244V163.271H31.3836V142.938Z" fill="#BEBBC9"/>
<path d="M88.6657 150.708C88.6785 150.197 88.5872 149.688 88.3975 149.214C88.2078 148.739 87.9236 148.308 87.5621 147.946C87.2007 147.585 86.7695 147.301 86.2949 147.111C85.8202 146.921 85.3119 146.83 84.8009 146.843C83.7002 146.773 82.6164 147.14 81.7838 147.863C80.9512 148.586 80.4367 149.608 80.3517 150.708H88.6657ZM93.9782 159.699C92.9275 160.958 91.6107 161.969 90.1225 162.658C88.6343 163.347 87.0118 163.697 85.372 163.684C79.0767 163.684 74.0298 159.487 74.0298 152.966C74.0298 146.444 79.0767 142.261 85.372 142.261C91.2556 142.261 94.9477 146.458 94.9477 152.966V154.944H80.3384C80.5119 156.07 81.0883 157.095 81.9603 157.828C82.8324 158.56 83.9409 158.952 85.0798 158.929C85.9769 158.928 86.859 158.699 87.644 158.265C88.4289 157.831 89.0912 157.205 89.5688 156.445L93.9782 159.699ZM108.083 147.826C107.055 147.794 106.041 148.07 105.17 148.618C104.3 149.166 103.613 149.961 103.198 150.902C102.782 151.843 102.657 152.886 102.838 153.899C103.019 154.911 103.498 155.847 104.214 156.585C104.929 157.324 105.849 157.832 106.856 158.044C107.862 158.257 108.909 158.164 109.862 157.779C110.815 157.393 111.632 156.731 112.207 155.878C112.782 155.026 113.089 154.021 113.09 152.992C113.146 152.31 113.055 151.623 112.823 150.979C112.591 150.334 112.224 149.747 111.745 149.258C111.267 148.768 110.688 148.386 110.05 148.139C109.411 147.892 108.727 147.785 108.043 147.826M118.934 163.205H113.09V160.549C112.36 161.523 111.417 162.316 110.332 162.869C109.248 163.421 108.051 163.718 106.834 163.737C100.778 163.737 96.7939 159.367 96.7939 153.191C96.7939 147.52 100.327 142.314 106.091 142.314C107.303 142.207 108.522 142.393 109.648 142.855C110.773 143.317 111.771 144.043 112.559 144.97H112.638V133.283H118.934V163.205Z" fill="#BEBBC9"/>
<path d="M164.595 127H128.377C127.555 126.993 126.763 127.312 126.176 127.887C125.588 128.462 125.253 129.246 125.242 130.068V166.432C125.253 167.254 125.588 168.039 126.176 168.614C126.763 169.189 127.555 169.507 128.377 169.5H164.595C165.003 169.506 165.408 169.43 165.787 169.279C166.166 169.128 166.512 168.903 166.804 168.618C167.096 168.333 167.329 167.994 167.49 167.619C167.651 167.244 167.737 166.84 167.742 166.432V130.068C167.737 129.66 167.651 129.257 167.49 128.882C167.329 128.507 167.096 128.167 166.804 127.882C166.512 127.597 166.166 127.373 165.787 127.222C165.408 127.07 165.003 126.995 164.595 127Z" fill="#BEBBC9"/>
<path d="M131.537 142.938H137.846V163.218H131.537V142.938ZM134.685 132.857C135.407 132.857 136.114 133.072 136.714 133.473C137.315 133.874 137.783 134.445 138.059 135.112C138.336 135.779 138.408 136.514 138.267 137.222C138.126 137.931 137.778 138.582 137.268 139.092C136.757 139.603 136.106 139.951 135.398 140.092C134.689 140.233 133.955 140.161 133.287 139.884C132.62 139.608 132.05 139.14 131.648 138.539C131.247 137.938 131.033 137.232 131.033 136.51C131.033 135.541 131.418 134.612 132.102 133.927C132.787 133.242 133.716 132.857 134.685 132.857ZM141.791 142.938H147.833V145.714H147.913C148.519 144.68 149.393 143.829 150.443 143.251C151.492 142.674 152.679 142.391 153.876 142.433C160.265 142.433 161.433 146.63 161.433 152.089V163.218H155.138V153.35C155.138 151 155.138 148.038 151.858 148.038C148.577 148.038 148.073 150.601 148.073 153.244V163.271H141.777L141.791 142.938Z" fill="#E0DEEA"/>
</svg>
